<svg xmlns="http://www.w3.org/2000/svg" xmlns:xlink="http://www.w3.org/1999/xlink" width="500" zoomAndPan="magnify" viewBox="0 0 375 374.999991" height="500" preserveAspectRatio="xMidYMid meet" version="1.0"><defs><g/><clipPath id="id1"><path d="M 136.851562 135.410156 L 216 135.410156 L 216 231 L 136.851562 231 Z M 136.851562 135.410156 " clip-rule="nonzero"/></clipPath><clipPath id="id2"><path d="M 178 175 L 244 175 L 244 239.660156 L 178 239.660156 Z M 178 175 " clip-rule="nonzero"/></clipPath></defs><path fill="rgb(19.219971%, 19.60907%, 20.388794%)" d="M 314.929688 187.449219 C 314.929688 173.742188 321.761719 159.199219 317.558594 146.859375 C 313.246094 134.046875 298.640625 126.171875 290.601562 115.511719 C 282.453125 104.746094 279.089844 89.046875 267.898438 81.222656 C 256.8125 73.503906 240.257812 75.238281 226.964844 71.039062 C 214.089844 67.046875 201.84375 56.125 187.605469 56.125 C 173.363281 56.125 161.066406 66.996094 148.246094 71.039062 C 134.953125 75.1875 118.347656 73.453125 107.257812 81.222656 C 96.066406 89.046875 92.703125 104.746094 84.558594 115.511719 C 76.464844 126.171875 61.910156 134.046875 57.546875 146.859375 C 53.398438 159.199219 60.175781 173.742188 60.175781 187.449219 C 60.175781 201.152344 53.34375 215.695312 57.546875 228.035156 C 61.855469 240.847656 76.464844 248.722656 84.503906 259.382812 C 92.648438 270.148438 96.011719 285.847656 107.207031 293.671875 C 118.292969 301.441406 134.847656 299.707031 148.195312 303.855469 C 161.066406 307.847656 173.3125 318.769531 187.550781 318.769531 C 201.792969 318.769531 214.089844 307.898438 226.910156 303.855469 C 240.207031 299.707031 256.8125 301.441406 267.898438 293.671875 C 279.089844 285.847656 282.453125 270.148438 290.601562 259.382812 C 298.691406 248.722656 313.246094 240.847656 317.558594 228.035156 C 321.761719 215.644531 314.929688 201.097656 314.929688 187.449219 " fill-opacity="1" fill-rule="nonzero"/><path fill="rgb(100%, 100%, 100%)" d="M 311.300781 187.449219 C 311.300781 174.132812 317.9375 160.003906 313.855469 148.015625 C 309.667969 135.570312 295.476562 127.917969 287.664062 117.5625 C 279.75 107.105469 276.484375 91.851562 265.609375 84.25 C 254.835938 76.75 238.757812 78.433594 225.839844 74.355469 C 213.332031 70.476562 201.4375 59.867188 187.601562 59.867188 C 173.765625 59.867188 161.820312 70.425781 149.363281 74.355469 C 136.449219 78.382812 120.316406 76.699219 109.542969 84.25 C 98.667969 91.851562 95.402344 107.105469 87.488281 117.5625 C 79.625 127.917969 65.484375 135.570312 61.246094 148.015625 C 57.214844 160.003906 63.800781 174.132812 63.800781 187.449219 C 63.800781 200.761719 57.164062 214.894531 61.246094 226.882812 C 65.433594 239.328125 79.625 246.980469 87.4375 257.335938 C 95.351562 267.792969 98.617188 283.046875 109.492188 290.648438 C 120.265625 298.199219 136.34375 296.515625 149.3125 300.542969 C 161.820312 304.421875 173.714844 315.03125 187.550781 315.03125 C 201.386719 315.03125 213.332031 304.472656 225.789062 300.542969 C 238.707031 296.515625 254.835938 298.199219 265.609375 290.648438 C 276.484375 283.046875 279.75 267.792969 287.664062 257.335938 C 295.527344 246.980469 309.667969 239.328125 313.855469 226.882812 C 317.9375 214.84375 311.300781 200.710938 311.300781 187.449219 " fill-opacity="1" fill-rule="nonzero"/><path fill="rgb(23.919678%, 22.349548%, 22.349548%)" d="M 308.910156 187.449219 C 308.910156 174.394531 315.417969 160.535156 311.414062 148.777344 C 307.308594 136.570312 293.390625 129.066406 285.730469 118.910156 C 277.96875 108.65625 274.765625 93.699219 264.101562 86.242188 C 253.539062 78.890625 237.765625 80.539062 225.101562 76.539062 C 212.832031 72.738281 201.167969 62.332031 187.601562 62.332031 C 174.03125 62.332031 162.316406 72.6875 150.101562 76.539062 C 137.433594 80.492188 121.613281 78.839844 111.046875 86.242188 C 100.382812 93.699219 97.179688 108.65625 89.421875 118.910156 C 81.710938 129.066406 67.839844 136.570312 63.6875 148.777344 C 59.730469 160.535156 66.1875 174.394531 66.1875 187.449219 C 66.1875 200.507812 59.679688 214.363281 63.6875 226.121094 C 67.792969 238.328125 81.710938 245.832031 89.371094 255.988281 C 97.128906 266.242188 100.335938 281.203125 111 288.65625 C 121.5625 296.058594 137.332031 294.410156 150.050781 298.359375 C 162.316406 302.164062 173.980469 312.570312 187.550781 312.570312 C 201.117188 312.570312 212.832031 302.214844 225.050781 298.359375 C 237.714844 294.410156 253.539062 296.058594 264.101562 288.65625 C 274.765625 281.203125 277.96875 266.242188 285.730469 255.988281 C 293.441406 245.832031 307.308594 238.328125 311.414062 226.121094 C 315.417969 214.316406 308.910156 200.457031 308.910156 187.449219 " fill-opacity="1" fill-rule="nonzero"/><path stroke-linecap="round" transform="matrix(1.501042, 0, 0, 1.5, 262.136238, 178.208455)" fill="none" stroke-linejoin="miter" d="M 0.499973 -0.000949498 L 21.990249 -0.000949498 " stroke="rgb(100%, 100%, 100%)" stroke-width="1" stroke-opacity="1" stroke-miterlimit="4"/><path stroke-linecap="round" transform="matrix(1.510439, 0, 0, 1.5, 79.127599, 178.208455)" fill="none" stroke-linejoin="miter" d="M 0.499996 -0.000949498 L 25.324634 -0.000949498 " stroke="rgb(100%, 100%, 100%)" stroke-width="1" stroke-opacity="1" stroke-miterlimit="4"/><path stroke-linecap="round" transform="matrix(1.510439, 0.000331461, -0.00032917, 1.5, 79.127599, 194.266761)" fill="none" stroke-linejoin="miter" d="M 0.499996 -0.000867715 L 25.324633 -0.00114497 " stroke="rgb(100%, 100%, 100%)" stroke-width="1" stroke-opacity="1" stroke-miterlimit="4"/><path stroke-linecap="round" transform="matrix(1.501042, 0, 0, 1.5, 262.136238, 196.791534)" fill="none" stroke-linejoin="miter" d="M 0.499973 0.000956315 L 21.990249 0.000956315 " stroke="rgb(100%, 100%, 100%)" stroke-width="1" stroke-opacity="1" stroke-miterlimit="4"/><g clip-path="url(#id1)"><path fill="rgb(100%, 100%, 100%)" d="M 175.871094 228.613281 L 137.660156 228.613281 L 138.371094 229.324219 L 138.371094 139.910156 C 138.371094 138.707031 138.429688 137.488281 138.371094 136.300781 C 138.371094 136.246094 138.371094 136.195312 138.371094 136.140625 L 137.660156 136.839844 L 211.652344 136.839844 C 212.648438 136.839844 213.664062 136.902344 214.660156 136.839844 L 214.789062 136.839844 L 214.078125 136.128906 L 214.078125 167.066406 C 214.078125 168.496094 214.015625 169.9375 214.078125 171.367188 L 214.078125 171.429688 C 214.078125 172.34375 215.5 172.34375 215.5 171.429688 L 215.5 140.492188 C 215.5 139.0625 215.5625 137.621094 215.5 136.191406 C 215.496094 136.171875 215.496094 136.152344 215.5 136.128906 C 215.5 135.933594 215.429688 135.765625 215.292969 135.625 C 215.152344 135.484375 214.984375 135.414062 214.789062 135.410156 L 140.796875 135.410156 C 139.796875 135.410156 138.789062 135.410156 137.789062 135.410156 L 137.660156 135.410156 C 137.460938 135.410156 137.289062 135.480469 137.148438 135.621094 C 137.007812 135.761719 136.9375 135.929688 136.9375 136.128906 L 136.9375 225.539062 C 136.9375 226.746094 136.914062 227.957031 136.9375 229.152344 L 136.9375 229.324219 C 136.941406 229.519531 137.011719 229.683594 137.148438 229.824219 C 137.285156 229.960938 137.453125 230.03125 137.648438 230.03125 L 175.871094 230.03125 C 176.785156 230.03125 176.785156 228.617188 175.871094 228.617188 Z M 175.871094 228.613281 " fill-opacity="1" fill-rule="nonzero"/></g><g clip-path="url(#id2)"><path fill="rgb(100%, 100%, 100%)" d="M 185.117188 218.804688 C 183.460938 224.261719 181.367188 229.570312 179.386719 234.921875 C 178.917969 236.183594 178.457031 237.445312 178.027344 238.714844 C 177.992188 238.835938 177.996094 238.957031 178.027344 239.082031 C 178.058594 239.203125 178.121094 239.308594 178.210938 239.398438 C 178.300781 239.488281 178.40625 239.550781 178.53125 239.582031 C 178.652344 239.617188 178.773438 239.617188 178.898438 239.585938 C 182.285156 238.695312 185.667969 237.78125 189.039062 236.84375 C 192.695312 235.828125 196.34375 234.789062 199.980469 233.699219 C 201.785156 233.140625 203.597656 232.585938 205.386719 232.015625 C 205.507812 231.980469 205.609375 231.917969 205.699219 231.828125 C 205.785156 231.738281 205.84375 231.632812 205.875 231.511719 C 205.90625 231.390625 205.910156 231.269531 205.875 231.148438 C 205.84375 231.027344 205.785156 230.921875 205.699219 230.832031 C 202.691406 227.453125 199.359375 224.371094 196.101562 221.234375 C 194.453125 219.644531 192.808594 218.046875 191.21875 216.394531 C 190.5 215.644531 189.738281 214.902344 189.089844 214.089844 C 188.996094 213.972656 188.847656 213.796875 188.863281 213.636719 C 188.882812 213.480469 189.074219 213.285156 189.191406 213.160156 C 189.648438 212.691406 190.125 212.234375 190.582031 211.773438 L 224.742188 177.871094 L 226.171875 176.453125 L 225.167969 176.453125 L 238.308594 189.921875 L 242.039062 193.757812 L 242.039062 192.757812 C 238.164062 197.5 234.132812 202.113281 229.953125 206.597656 C 225.773438 211.078125 221.433594 215.4375 216.9375 219.671875 C 214.425781 222.035156 211.867188 224.351562 209.265625 226.617188 C 209.128906 226.757812 209.058594 226.925781 209.058594 227.121094 C 209.058594 227.316406 209.128906 227.484375 209.265625 227.621094 C 209.40625 227.761719 209.574219 227.828125 209.769531 227.828125 C 209.964844 227.828125 210.132812 227.761719 210.273438 227.621094 C 214.886719 223.585938 219.367188 219.40625 223.714844 215.078125 C 228.0625 210.753906 232.277344 206.273438 236.359375 201.644531 C 238.636719 199.050781 240.867188 196.421875 243.042969 193.75 C 243.175781 193.609375 243.242188 193.445312 243.242188 193.25 C 243.242188 193.054688 243.175781 192.890625 243.042969 192.75 L 229.902344 179.273438 L 226.167969 175.441406 C 226.027344 175.304688 225.863281 175.238281 225.667969 175.238281 C 225.472656 175.238281 225.304688 175.304688 225.164062 175.441406 L 213.53125 186.984375 L 201.898438 198.53125 L 190.316406 210.023438 L 188.835938 211.492188 C 188.417969 211.910156 187.910156 212.324219 187.640625 212.859375 C 187.007812 214.097656 188.0625 215.082031 188.835938 215.914062 C 190.367188 217.582031 191.980469 219.195312 193.609375 220.78125 C 196.964844 224.050781 200.433594 227.21875 203.636719 230.648438 C 203.996094 231.035156 204.347656 231.421875 204.695312 231.8125 L 205.007812 230.628906 C 201.667969 231.707031 198.324219 232.703125 194.957031 233.683594 C 191.3125 234.734375 187.660156 235.753906 183.992188 236.742188 C 182.171875 237.234375 180.347656 237.722656 178.523438 238.203125 L 179.394531 239.074219 C 181.128906 233.980469 183.183594 229 184.941406 223.914062 C 185.496094 222.34375 186.003906 220.765625 186.488281 219.175781 C 186.75 218.300781 185.371094 217.925781 185.117188 218.800781 Z M 185.117188 218.804688 " fill-opacity="1" fill-rule="nonzero"/></g><path fill="rgb(100%, 100%, 100%)" d="M 232.847656 184.519531 L 221.875 196.402344 L 210.902344 208.28125 L 204.691406 215.015625 C 204.074219 215.683594 205.074219 216.683594 205.695312 216.015625 L 216.667969 204.132812 L 227.636719 192.253906 L 233.851562 185.519531 C 234.46875 184.851562 233.46875 183.855469 232.847656 184.519531 Z M 232.847656 184.519531 " fill-opacity="1" fill-rule="nonzero"/><path fill="rgb(100%, 100%, 100%)" d="M 230.1875 172.277344 C 233.855469 167.402344 241.113281 164.746094 246.894531 167.273438 C 249.679688 168.496094 252.28125 170.761719 253.105469 173.769531 C 254.113281 177.429688 251.832031 180.871094 249.621094 183.59375 C 246.859375 186.996094 244.175781 190.46875 241.238281 193.730469 C 240.628906 194.40625 241.632812 195.394531 242.246094 194.730469 C 244.988281 191.675781 247.515625 188.445312 250.09375 185.25 C 252.609375 182.132812 255.296875 178.570312 254.65625 174.308594 C 254.140625 170.902344 251.492188 168.117188 248.542969 166.53125 C 245.480469 164.882812 241.957031 164.546875 238.589844 165.324219 C 236.894531 165.714844 235.296875 166.355469 233.800781 167.238281 C 232.304688 168.121094 230.972656 169.210938 229.8125 170.503906 C 229.515625 170.84375 229.230469 171.199219 228.957031 171.5625 C 228.863281 171.730469 228.839844 171.910156 228.886719 172.097656 C 228.9375 172.289062 229.046875 172.433594 229.214844 172.53125 C 229.386719 172.625 229.5625 172.648438 229.753906 172.597656 C 229.941406 172.550781 230.085938 172.441406 230.1875 172.277344 Z M 230.1875 172.277344 " fill-opacity="1" fill-rule="nonzero"/><path fill="rgb(100%, 100%, 100%)" d="M 151.101562 158.726562 L 203.820312 158.726562 C 204.734375 158.726562 204.734375 157.308594 203.820312 157.308594 L 151.101562 157.308594 C 150.1875 157.308594 150.1875 158.726562 151.101562 158.726562 Z M 151.101562 158.726562 " fill-opacity="1" fill-rule="nonzero"/><path fill="rgb(100%, 100%, 100%)" d="M 150.75 177.433594 L 186.484375 177.433594 C 187.398438 177.433594 187.398438 176.015625 186.484375 176.015625 L 150.75 176.015625 C 149.835938 176.015625 149.835938 177.433594 150.75 177.433594 Z M 150.75 177.433594 " fill-opacity="1" fill-rule="nonzero"/><path fill="rgb(100%, 100%, 100%)" d="M 150.75 196.882812 L 172.558594 196.882812 C 173.472656 196.882812 173.476562 195.464844 172.558594 195.464844 L 150.75 195.464844 C 149.835938 195.464844 149.835938 196.882812 150.75 196.882812 Z M 150.75 196.882812 " fill-opacity="1" fill-rule="nonzero"/><g fill="rgb(100%, 100%, 100%)" fill-opacity="1"><g transform="translate(79.605731, 192.38344)"><g><path d="M 6.515625 -7.34375 L 6.515625 -9 L 0.984375 -9 L 0.984375 0 L 2.855469 0 L 2.855469 -3.671875 L 6.011719 -3.671875 L 6.011719 -5.328125 L 2.855469 -5.328125 L 2.855469 -7.34375 Z M 6.515625 -7.34375 "/></g></g></g><g fill="rgb(100%, 100%, 100%)" fill-opacity="1"><g transform="translate(86.66174, 192.38344)"><g><path d="M 5.207031 0.121094 C 6.480469 0.121094 7.570312 -0.324219 8.472656 -1.222656 C 9.371094 -2.125 9.828125 -3.214844 9.828125 -4.5 C 9.828125 -5.773438 9.371094 -6.863281 8.472656 -7.765625 C 7.570312 -8.664062 6.480469 -9.121094 5.207031 -9.121094 C 3.925781 -9.121094 2.832031 -8.664062 1.933594 -7.765625 C 1.03125 -6.863281 0.589844 -5.773438 0.589844 -4.5 C 0.589844 -3.214844 1.03125 -2.125 1.933594 -1.222656 C 2.832031 -0.324219 3.925781 0.121094 5.207031 0.121094 Z M 5.207031 -1.714844 C 4.414062 -1.714844 3.757812 -1.980469 3.226562 -2.519531 C 2.6875 -3.046875 2.425781 -3.707031 2.425781 -4.5 C 2.425781 -5.28125 2.6875 -5.941406 3.226562 -6.480469 C 3.757812 -7.007812 4.414062 -7.285156 5.207031 -7.285156 C 5.988281 -7.285156 6.648438 -7.007812 7.1875 -6.480469 C 7.714844 -5.941406 7.992188 -5.28125 7.992188 -4.5 C 7.992188 -3.707031 7.714844 -3.046875 7.1875 -2.519531 C 6.648438 -1.980469 5.988281 -1.714844 5.207031 -1.714844 Z M 5.207031 -1.714844 "/></g></g></g><g fill="rgb(100%, 100%, 100%)" fill-opacity="1"><g transform="translate(97.377765, 192.38344)"><g><path d="M 5.484375 -3.742188 C 6.023438 -3.886719 6.46875 -4.199219 6.816406 -4.65625 C 7.164062 -5.113281 7.34375 -5.652344 7.34375 -6.265625 C 7.34375 -7.03125 7.078125 -7.679688 6.574219 -8.207031 C 6.058594 -8.734375 5.425781 -9 4.667969 -9 L 0.910156 -9 L 0.910156 0 L 2.785156 0 L 2.785156 -3.550781 L 3.636719 -3.550781 L 5.867188 0 L 8.027344 0 Z M 4.402344 -5.101562 L 2.785156 -5.101562 L 2.785156 -7.332031 L 4.402344 -7.332031 C 4.726562 -7.332031 5.003906 -7.222656 5.21875 -7.007812 C 5.4375 -6.792969 5.542969 -6.527344 5.542969 -6.214844 C 5.542969 -5.890625 5.4375 -5.628906 5.21875 -5.410156 C 5.003906 -5.195312 4.726562 -5.101562 4.402344 -5.101562 Z M 4.402344 -5.101562 "/></g></g></g><g fill="rgb(100%, 100%, 100%)" fill-opacity="1"><g transform="translate(105.705786, 192.38344)"><g><path d="M 8.761719 -9 L 5.832031 -4.019531 L 2.929688 -9 L 0.910156 -9 L 0.910156 0 L 2.785156 0 L 2.785156 -6.035156 L 5.832031 -0.695312 L 8.902344 -6.023438 L 8.902344 0 L 10.765625 0 L 10.765625 -9 Z M 8.761719 -9 "/></g></g></g><g fill="rgb(100%, 100%, 100%)" fill-opacity="1"><g transform="translate(140.469172, 124.141404)"><g><path d="M 6.445312 -19.410156 L 5.085938 -22.582031 L -5.507812 -18.039062 L 1.882812 -0.808594 L 5.46875 -2.34375 L 2.453125 -9.375 L 8.496094 -11.964844 L 7.136719 -15.136719 L 1.09375 -12.546875 L -0.5625 -16.40625 Z M 6.445312 -19.410156 "/></g></g></g><g fill="rgb(100%, 100%, 100%)" fill-opacity="1"><g transform="translate(151.66637, 118.866809)"><g><path d="M 10.578125 -2.417969 C 13.148438 -3.070312 15.125 -4.523438 16.484375 -6.800781 C 17.839844 -9.078125 18.203125 -11.515625 17.546875 -14.109375 C 16.898438 -16.679688 15.417969 -18.652344 13.140625 -20.007812 C 10.863281 -21.367188 8.425781 -21.730469 5.855469 -21.078125 C 3.261719 -20.421875 1.292969 -18.945312 -0.0664062 -16.667969 C -1.421875 -14.390625 -1.761719 -11.957031 -1.113281 -9.386719 C -0.457031 -6.796875 1 -4.816406 3.277344 -3.460938 C 5.554688 -2.101562 7.984375 -1.761719 10.578125 -2.417969 Z M 9.640625 -6.128906 C 8.039062 -5.722656 6.574219 -5.917969 5.230469 -6.738281 C 3.871094 -7.527344 3 -8.726562 2.59375 -10.328125 C 2.195312 -11.902344 2.394531 -13.371094 3.207031 -14.734375 C 4.003906 -16.070312 5.195312 -16.964844 6.792969 -17.371094 C 8.371094 -17.769531 9.84375 -17.550781 11.203125 -16.757812 C 12.546875 -15.9375 13.441406 -14.746094 13.839844 -13.171875 C 14.246094 -11.574219 14.023438 -10.097656 13.226562 -8.761719 C 12.414062 -7.394531 11.214844 -6.527344 9.640625 -6.128906 Z M 9.640625 -6.128906 "/></g></g></g><g fill="rgb(100%, 100%, 100%)" fill-opacity="1"><g transform="translate(170.904946, 114.051749)"><g><path d="M 10.773438 -8.675781 C 11.871094 -9.0625 12.742188 -9.785156 13.390625 -10.789062 C 14.039062 -11.792969 14.324219 -12.941406 14.222656 -14.214844 C 14.097656 -15.808594 13.441406 -17.113281 12.308594 -18.125 C 11.148438 -19.136719 9.785156 -19.582031 8.214844 -19.457031 L 0.414062 -18.839844 L 1.894531 -0.148438 L 5.78125 -0.457031 L 5.199219 -7.832031 L 6.96875 -7.972656 L 12.1875 -0.964844 L 16.671875 -1.320312 Z M 8.308594 -11.3125 L 4.945312 -11.046875 L 4.578125 -15.683594 L 7.941406 -15.949219 C 8.613281 -16.003906 9.207031 -15.824219 9.6875 -15.410156 C 10.171875 -14.996094 10.441406 -14.46875 10.492188 -13.820312 C 10.546875 -13.144531 10.363281 -12.582031 9.953125 -12.097656 C 9.539062 -11.613281 8.980469 -11.367188 8.308594 -11.3125 Z M 8.308594 -11.3125 "/></g></g></g><g fill="rgb(100%, 100%, 100%)" fill-opacity="1"><g transform="translate(185.606192, 112.36832)"><g><path d="M 20.054688 -16.800781 L 12.933594 -7.097656 L 7.96875 -18.03125 L 3.789062 -18.457031 L 1.890625 0.191406 L 5.769531 0.589844 L 7.042969 -11.921875 L 12.234375 -0.210938 L 19.726562 -10.605469 L 18.453125 1.878906 L 22.308594 2.273438 L 24.207031 -16.378906 Z M 20.054688 -16.800781 "/></g></g></g><g fill="rgb(100%, 100%, 100%)" fill-opacity="1"><g transform="translate(207.877206, 114.887997)"><g><path d="M 17.199219 -11.070312 L 18.128906 -14.390625 L 7.03125 -17.5 L 1.972656 0.554688 L 13.070312 3.660156 L 14 0.339844 L 6.660156 -1.71875 L 7.792969 -5.761719 L 14.121094 -3.988281 L 15.054688 -7.308594 L 8.722656 -9.082031 L 9.855469 -13.125 Z M 17.199219 -11.070312 "/></g></g></g><g fill="rgb(100%, 100%, 100%)" fill-opacity="1"><g transform="translate(220.677732, 118.377204)"><g><path d="M 18.480469 -8.761719 L 19.832031 -11.933594 L 9.226562 -16.449219 L 1.886719 0.804688 L 12.488281 5.316406 L 13.839844 2.140625 L 6.824219 -0.84375 L 8.46875 -4.707031 L 14.519531 -2.132812 L 15.871094 -5.308594 L 9.820312 -7.882812 L 11.464844 -11.746094 Z M 18.480469 -8.761719 "/></g></g></g><g fill="rgb(100%, 100%, 100%)" fill-opacity="1"><g transform="translate(90.177488, 227.341456)"><g><path d="M 12.832031 1.886719 L 14.949219 0.394531 L 10.511719 -5.914062 L 0.699219 0.996094 L 2.414062 3.425781 L 6.257812 0.71875 L 8.597656 4.042969 L 10.714844 2.550781 L 8.378906 -0.773438 L 10.105469 -1.988281 Z M 12.832031 1.886719 "/></g></g></g><g fill="rgb(100%, 100%, 100%)" fill-opacity="1"><g transform="translate(96.390347, 236.225186)"><g><path d="M 4.429688 5.226562 C 5.554688 6.492188 6.964844 7.1875 8.65625 7.289062 C 10.351562 7.386719 11.84375 6.875 13.125 5.738281 C 14.390625 4.613281 15.074219 3.191406 15.175781 1.496094 C 15.273438 -0.195312 14.761719 -1.6875 13.636719 -2.957031 C 12.5 -4.234375 11.078125 -4.921875 9.382812 -5.019531 C 7.691406 -5.121094 6.210938 -4.597656 4.941406 -3.46875 C 3.660156 -2.332031 2.96875 -0.925781 2.867188 0.769531 C 2.765625 2.464844 3.292969 3.945312 4.429688 5.226562 Z M 6.605469 3.289062 C 5.988281 2.597656 5.695312 1.808594 5.757812 0.941406 C 5.796875 0.0703125 6.183594 -0.675781 6.875 -1.292969 C 7.570312 -1.910156 8.34375 -2.191406 9.226562 -2.140625 C 10.082031 -2.089844 10.84375 -1.714844 11.460938 -1.023438 C 12.078125 -0.328125 12.347656 0.457031 12.308594 1.328125 C 12.246094 2.195312 11.882812 2.945312 11.1875 3.5625 C 10.496094 4.179688 9.695312 4.460938 8.839844 4.410156 C 7.957031 4.355469 7.222656 3.984375 6.605469 3.289062 Z M 6.605469 3.289062 "/></g></g></g><g fill="rgb(100%, 100%, 100%)" fill-opacity="1"><g transform="translate(106.710164, 247.563138)"><g><path d="M 8.957031 1.511719 C 9.632812 1.808594 10.335938 1.855469 11.074219 1.675781 C 11.8125 1.492188 12.457031 1.101562 12.996094 0.492188 C 13.695312 -0.300781 14.015625 -1.191406 13.984375 -2.199219 C 13.933594 -3.203125 13.53125 -4.050781 12.753906 -4.742188 L 8.785156 -8.25 L 0.839844 0.742188 L 3.070312 2.710938 L 6.015625 -0.621094 L 6.554688 -0.144531 L 5.71875 5.054688 L 8.269531 7.308594 Z M 8.980469 -1.199219 L 7.601562 -2.417969 L 9.296875 -4.335938 L 10.675781 -3.117188 C 10.953125 -2.875 11.09375 -2.578125 11.117188 -2.238281 C 11.125 -1.886719 11.019531 -1.574219 10.789062 -1.3125 C 10.542969 -1.035156 10.246094 -0.890625 9.910156 -0.871094 C 9.558594 -0.839844 9.257812 -0.957031 8.980469 -1.199219 Z M 8.980469 -1.199219 "/></g></g></g><g fill="rgb(100%, 100%, 100%)" fill-opacity="1"><g transform="translate(116.119922, 255.947742)"><g><path d="M 16.269531 -3.5 L 9.851562 -0.417969 L 10.316406 -7.515625 L 7.636719 -9.320312 L 0.929688 0.625 L 3.394531 2.289062 L 7.507812 -3.8125 L 6.921875 3.898438 L 13.875 0.480469 L 9.761719 6.582031 L 12.230469 8.246094 L 18.9375 -1.703125 Z M 16.269531 -3.5 "/></g></g></g><g fill="rgb(100%, 100%, 100%)" fill-opacity="1"><g transform="translate(130.820513, 265.501255)"><g><path d="M 4.351562 2.382812 C 5.410156 2.917969 6.4375 3.078125 7.460938 2.863281 C 8.488281 2.644531 9.253906 2.046875 9.746094 1.078125 C 10.0625 0.449219 10.210938 -0.15625 10.199219 -0.738281 C 10.1875 -1.316406 10.054688 -1.796875 9.8125 -2.207031 C 9.550781 -2.609375 9.265625 -3.003906 8.9375 -3.382812 C 8.597656 -3.769531 8.285156 -4.109375 7.976562 -4.390625 C 7.65625 -4.675781 7.429688 -4.972656 7.28125 -5.28125 C 7.125 -5.574219 7.125 -5.859375 7.261719 -6.132812 C 7.394531 -6.390625 7.558594 -6.539062 7.800781 -6.59375 C 8.039062 -6.636719 8.289062 -6.597656 8.546875 -6.46875 C 9.101562 -6.1875 9.515625 -5.585938 9.804688 -4.667969 L 12.308594 -5.441406 C 12.121094 -6.128906 11.808594 -6.753906 11.367188 -7.335938 C 10.914062 -7.925781 10.371094 -8.378906 9.714844 -8.710938 C 8.773438 -9.1875 7.816406 -9.3125 6.839844 -9.125 C 5.859375 -8.921875 5.113281 -8.296875 4.59375 -7.269531 C 4.246094 -6.582031 4.113281 -5.933594 4.226562 -5.300781 C 4.335938 -4.671875 4.570312 -4.140625 4.953125 -3.695312 C 5.316406 -3.242188 5.695312 -2.820312 6.105469 -2.429688 C 6.519531 -2.042969 6.832031 -1.667969 7.074219 -1.296875 C 7.316406 -0.921875 7.359375 -0.578125 7.199219 -0.265625 C 7.070312 -0.0078125 6.847656 0.148438 6.574219 0.1875 C 6.292969 0.246094 5.972656 0.171875 5.601562 -0.015625 C 5.117188 -0.261719 4.761719 -0.585938 4.527344 -1.007812 C 4.269531 -1.425781 4.164062 -1.890625 4.195312 -2.410156 L 1.414062 -2.152344 C 1.410156 -1.257812 1.675781 -0.40625 2.1875 0.425781 C 2.699219 1.257812 3.425781 1.914062 4.351562 2.382812 Z M 4.351562 2.382812 "/></g></g></g><g fill="rgb(100%, 100%, 100%)" fill-opacity="1"><g transform="translate(145.609795, 272.445755)"><g><path d="M 11.484375 -6.023438 L 12.320312 -8.476562 L 5.023438 -10.964844 L 1.152344 0.390625 L 3.96875 1.351562 L 5.484375 -3.097656 L 9.332031 -1.789062 L 10.167969 -4.242188 L 6.320312 -5.550781 L 7.003906 -7.550781 Z M 11.484375 -6.023438 "/></g></g></g><g fill="rgb(100%, 100%, 100%)" fill-opacity="1"><g transform="translate(155.790562, 275.879571)"><g><path d="M 8.597656 -2.929688 C 9.332031 -2.988281 9.976562 -3.28125 10.539062 -3.789062 C 11.101562 -4.300781 11.480469 -4.949219 11.667969 -5.746094 C 11.90625 -6.773438 11.761719 -7.710938 11.257812 -8.582031 C 10.738281 -9.445312 9.980469 -9.996094 8.964844 -10.234375 L 3.808594 -11.433594 L 1.089844 0.253906 L 3.988281 0.925781 L 4.996094 -3.402344 L 5.699219 -3.242188 L 7.433594 1.730469 L 10.75 2.5 Z M 7.332031 -5.324219 L 5.539062 -5.742188 L 6.121094 -8.234375 L 7.910156 -7.816406 C 8.269531 -7.734375 8.535156 -7.539062 8.714844 -7.253906 C 8.890625 -6.949219 8.949219 -6.625 8.867188 -6.28125 C 8.785156 -5.921875 8.589844 -5.65625 8.304688 -5.476562 C 8.011719 -5.28125 7.691406 -5.242188 7.332031 -5.324219 Z M 7.332031 -5.324219 "/></g></g></g><g fill="rgb(100%, 100%, 100%)" fill-opacity="1"><g transform="translate(167.993656, 278.703451)"><g><path d="M 6.789062 0.898438 C 8.476562 1.078125 9.988281 0.648438 11.308594 -0.414062 C 12.632812 -1.480469 13.390625 -2.859375 13.578125 -4.5625 C 13.757812 -6.25 13.3125 -7.761719 12.25 -9.082031 C 11.183594 -10.40625 9.804688 -11.167969 8.117188 -11.351562 C 6.414062 -11.535156 4.902344 -11.085938 3.582031 -10.023438 C 2.257812 -8.960938 1.511719 -7.574219 1.332031 -5.890625 C 1.144531 -4.1875 1.578125 -2.675781 2.640625 -1.355469 C 3.703125 -0.03125 5.089844 0.710938 6.789062 0.898438 Z M 7.105469 -1.996094 C 6.179688 -2.097656 5.433594 -2.484375 4.898438 -3.171875 C 4.34375 -3.84375 4.125 -4.652344 4.226562 -5.578125 C 4.324219 -6.5 4.710938 -7.230469 5.398438 -7.78125 C 6.066406 -8.320312 6.882812 -8.554688 7.804688 -8.453125 C 8.726562 -8.355469 9.453125 -7.953125 10.007812 -7.28125 C 10.546875 -6.597656 10.78125 -5.800781 10.683594 -4.875 C 10.582031 -3.953125 10.179688 -3.210938 9.507812 -2.671875 C 8.820312 -2.117188 8.027344 -1.898438 7.105469 -1.996094 Z M 7.105469 -1.996094 "/></g></g></g><g fill="rgb(100%, 100%, 100%)" fill-opacity="1"><g transform="translate(183.417254, 280.32289)"><g><path d="M 11.101562 -12.402344 L 7.722656 -6.132812 L 3.921875 -12.144531 L 0.691406 -12.03125 L 1.117188 -0.0390625 L 4.09375 -0.144531 L 3.832031 -7.5 L 7.890625 -0.921875 L 11.503906 -7.773438 L 11.765625 -0.417969 L 14.742188 -0.523438 L 14.3125 -12.515625 Z M 11.101562 -12.402344 "/></g></g></g><g fill="rgb(100%, 100%, 100%)" fill-opacity="1"><g transform="translate(206.135184, 278.649492)"><g><path d="M 6.402344 -13.578125 L -2.273438 -11.78125 L -1.75 -9.242188 L 1.148438 -9.84375 L 3.054688 -0.632812 L 5.953125 -1.230469 L 4.046875 -10.441406 L 6.929688 -11.039062 Z M 6.402344 -13.578125 "/></g></g></g><g fill="rgb(100%, 100%, 100%)" fill-opacity="1"><g transform="translate(216.539656, 276.438781)"><g><path d="M 5.769531 -11.613281 L 5.007812 -14.089844 L -2.363281 -11.824219 L 1.164062 -0.355469 L 8.53125 -2.621094 L 7.773438 -5.097656 L 3.246094 -3.707031 L 2.625 -5.726562 L 6.507812 -6.921875 L 5.746094 -9.398438 L 1.863281 -8.203125 L 1.242188 -10.222656 Z M 5.769531 -11.613281 "/></g></g></g><g fill="rgb(100%, 100%, 100%)" fill-opacity="1"><g transform="translate(227.191145, 273.118098)"><g><path d="M 5.234375 -7.421875 C 5.792969 -7.902344 6.140625 -8.519531 6.296875 -9.261719 C 6.449219 -10.003906 6.375 -10.753906 6.058594 -11.507812 C 5.648438 -12.480469 4.980469 -13.152344 4.0625 -13.5625 C 3.132812 -13.953125 2.191406 -13.953125 1.234375 -13.550781 L -3.640625 -11.488281 L 1.03125 -0.4375 L 3.773438 -1.59375 L 2.039062 -5.691406 L 2.703125 -5.972656 L 7.027344 -2.972656 L 10.167969 -4.300781 Z M 2.800781 -8.617188 L 1.105469 -7.902344 L 0.109375 -10.257812 L 1.804688 -10.976562 C 2.140625 -11.117188 2.472656 -11.117188 2.785156 -10.992188 C 3.105469 -10.847656 3.34375 -10.621094 3.480469 -10.296875 C 3.625 -9.957031 3.625 -9.625 3.496094 -9.3125 C 3.375 -8.984375 3.136719 -8.761719 2.800781 -8.617188 Z M 2.800781 -8.617188 "/></g></g></g><g fill="rgb(100%, 100%, 100%)" fill-opacity="1"><g transform="translate(238.819329, 268.25666)"><g><path d="M 3.875 -16.183594 L 3.878906 -9.066406 L -2.320312 -12.550781 L -5.105469 -10.914062 L 0.964844 -0.566406 L 3.53125 -2.074219 L -0.191406 -8.417969 L 6.507812 -4.558594 L 6.429688 -12.304688 L 10.15625 -5.957031 L 12.722656 -7.464844 L 6.648438 -17.8125 Z M 3.875 -16.183594 "/></g></g></g><g fill="rgb(100%, 100%, 100%)" fill-opacity="1"><g transform="translate(253.636031, 259.150868)"><g><path d="M 0.976562 -0.722656 L 3.371094 -2.488281 L -3.753906 -12.140625 L -6.148438 -10.375 Z M 0.976562 -0.722656 "/></g></g></g><g fill="rgb(100%, 100%, 100%)" fill-opacity="1"><g transform="translate(259.238665, 255.176964)"><g><path d="M -0.78125 -15.425781 L 4.308594 -9.761719 L -4.875 -11.75 L -7.183594 -9.675781 L 0.832031 -0.75 L 3.046875 -2.738281 L -2.0625 -8.425781 L 7.128906 -6.402344 L 9.449219 -8.488281 L 1.433594 -17.414062 Z M -0.78125 -15.425781 "/></g></g></g><g fill="rgb(100%, 100%, 100%)" fill-opacity="1"><g transform="translate(270.689155, 244.691879)"><g><path d="M 6.253906 -7.28125 L 8.347656 -9.71875 L -3.890625 -13.886719 L -6.066406 -11.347656 L -0.105469 0.121094 L 1.992188 -2.316406 L 0.878906 -4.285156 L 4.140625 -8.085938 Z M -0.382812 -6.550781 L -2.691406 -10.664062 L 1.722656 -9.003906 Z M -0.382812 -6.550781 "/></g></g></g><g fill="rgb(100%, 100%, 100%)" fill-opacity="1"><g transform="translate(279.7662, 233.824076)"><g><path d="M 0.210938 -4.84375 L -7.515625 -10.210938 L -9.214844 -7.765625 L 0.640625 -0.917969 L 4.539062 -6.527344 L 2.410156 -8.007812 Z M 0.210938 -4.84375 "/></g></g></g><g fill="rgb(100%, 100%, 100%)" fill-opacity="1"><g transform="translate(268.110457, 192.38344)"><g><path d="M 6.515625 -7.34375 L 6.515625 -9 L 0.984375 -9 L 0.984375 0 L 6.515625 0 L 6.515625 -1.65625 L 2.855469 -1.65625 L 2.855469 -3.671875 L 6.011719 -3.671875 L 6.011719 -5.328125 L 2.855469 -5.328125 L 2.855469 -7.34375 Z M 6.515625 -7.34375 "/></g></g></g><g fill="rgb(100%, 100%, 100%)" fill-opacity="1"><g transform="translate(275.466473, 192.38344)"><g><path d="M 6.515625 -7.34375 L 6.515625 -9 L 0.984375 -9 L 0.984375 0 L 6.515625 0 L 6.515625 -1.65625 L 2.855469 -1.65625 L 2.855469 -3.671875 L 6.011719 -3.671875 L 6.011719 -5.328125 L 2.855469 -5.328125 L 2.855469 -7.34375 Z M 6.515625 -7.34375 "/></g></g></g><g fill="rgb(100%, 100%, 100%)" fill-opacity="1"><g transform="translate(282.82249, 192.38344)"><g><path d="M 6.515625 -7.34375 L 6.515625 -9 L 0.984375 -9 L 0.984375 0 L 6.515625 0 L 6.515625 -1.65625 L 2.855469 -1.65625 L 2.855469 -3.671875 L 6.011719 -3.671875 L 6.011719 -5.328125 L 2.855469 -5.328125 L 2.855469 -7.34375 Z M 6.515625 -7.34375 "/></g></g></g></svg>